<svg xmlns="http://www.w3.org/2000/svg" viewBox="0 0 1200 630" role="img" aria-labelledby="title desc">
  <title id="title">IEEE VIS Skills</title>
  <desc id="desc">Cover image for the IEEE Visualization Conference (IEEE VIS) TVCG submission skills pack.</desc>
  <rect width="1200" height="630" fill="#0d1b2a"/>
  <rect x="72" y="72" width="1056" height="486" rx="28" fill="#f5f2ea"/>
  <rect x="150" y="330" width="46" height="110" rx="6" fill="#2f7f8f"/>
  <rect x="212" y="286" width="46" height="154" rx="6" fill="#3a8fa0"/>
  <rect x="274" y="356" width="46" height="84" rx="6" fill="#cc785c"/>
  <rect x="336" y="248" width="46" height="192" rx="6" fill="#6b4f9c"/>
  <rect x="398" y="310" width="46" height="130" rx="6" fill="#d69a72"/>
  <polyline points="173,300 235,260 297,330 359,220 421,278 483,238" fill="none" stroke="#0d1b2a" stroke-width="6" stroke-linecap="round" stroke-linejoin="round"/>
  <circle cx="173" cy="300" r="9" fill="#0d1b2a"/>
  <circle cx="235" cy="260" r="9" fill="#0d1b2a"/>
  <circle cx="297" cy="330" r="9" fill="#0d1b2a"/>
  <circle cx="359" cy="220" r="9" fill="#0d1b2a"/>
  <circle cx="421" cy="278" r="9" fill="#0d1b2a"/>
  <circle cx="483" cy="238" r="9" fill="#0d1b2a"/>
  <circle cx="880" cy="300" r="120" fill="none" stroke="#2f7f8f" stroke-width="18"/>
  <path d="M880 300 L880 180 A120 120 0 0 1 984 360 Z" fill="#cc785c"/>
  <text x="132" y="180" font-family="Arial, Helvetica, sans-serif" font-size="92" font-weight="700" fill="#0d1b2a">IEEE VIS</text>
  <text x="136" y="228" font-family="Arial, Helvetica, sans-serif" font-size="31" fill="#374151">The IEEE Visualization Conference</text>
  <text x="136" y="516" font-family="Arial, Helvetica, sans-serif" font-size="29" fill="#0d1b2a">TVCG · Two-Phase Review · Six Areas · Replicability Stamp</text>
</svg>
