<svg xmlns="http://www.w3.org/2000/svg" viewBox="0 0 1200 630" role="img" aria-labelledby="title desc">
  <title id="title">IPSN Skills</title>
  <desc id="desc">Cover image for the ACM/IEEE IPSN Information Processing in Sensor Networks submission skills pack.</desc>
  <rect width="1200" height="630" fill="#0e1f24"/>
  <rect x="72" y="72" width="1056" height="486" rx="28" fill="#f2f4f0"/>
  <circle cx="200" cy="300" r="18" fill="#2f8f7f"/>
  <circle cx="360" cy="220" r="18" fill="#2f8f7f"/>
  <circle cx="520" cy="330" r="18" fill="#2f8f7f"/>
  <circle cx="430" cy="440" r="18" fill="#cc785c"/>
  <circle cx="640" cy="250" r="18" fill="#2f8f7f"/>
  <circle cx="760" cy="400" r="18" fill="#cc785c"/>
  <path d="M200 300 L360 220 L520 330 L640 250 M360 220 L430 440 M520 330 L430 440 M640 250 L760 400 M520 330 L760 400" fill="none" stroke="#6b7f86" stroke-width="5"/>
  <rect x="870" y="250" width="150" height="100" rx="14" fill="#3b4a99"/>
  <rect x="895" y="300" width="100" height="10" rx="5" fill="#f2f4f0"/>
  <rect x="895" y="320" width="70" height="10" rx="5" fill="#f2f4f0"/>
  <text x="132" y="176" font-family="Arial, Helvetica, sans-serif" font-size="96" font-weight="700" fill="#0e1f24">IPSN</text>
  <text x="136" y="224" font-family="Arial, Helvetica, sans-serif" font-size="30" fill="#374151">Information Processing in Sensor Networks</text>
  <text x="136" y="516" font-family="Arial, Helvetica, sans-serif" font-size="28" fill="#0e1f24">IP + SPOTS tracks · CPS-IoT Week · TinyML · Localization · now SenSys</text>
</svg>
