<svg xmlns="http://www.w3.org/2000/svg" width="880" height="1100" viewBox="0 0 880 1100" role="img" aria-label="Agriculture &amp; Environment Journal Skills — 30 flagship agriculture, environment and earth-science journals">
  <defs>
    <linearGradient id="bg" x1="0" y1="0" x2="1" y2="1">
      <stop offset="0" stop-color="#08140d"/>
      <stop offset="0.55" stop-color="#0e2a1c"/>
      <stop offset="1" stop-color="#103027"/>
    </linearGradient>
    <linearGradient id="accent" x1="0" y1="0" x2="1" y2="0">
      <stop offset="0" stop-color="#4ade80"/>
      <stop offset="0.5" stop-color="#22c55e"/>
      <stop offset="1" stop-color="#38bdf8"/>
    </linearGradient>
  </defs>

  <rect width="880" height="1100" fill="url(#bg)"/>
  <rect x="36" y="36" width="808" height="1028" rx="28" fill="none" stroke="#1d4435" stroke-width="2"/>

  <!-- leaf + globe motif -->
  <g transform="translate(440,250)">
    <circle r="104" fill="none" stroke="url(#accent)" stroke-width="2.5" opacity="0.85"/>
    <ellipse rx="104" ry="40" fill="none" stroke="#38bdf8" stroke-width="1.4" opacity="0.55"/>
    <path d="M0 96 C -54 40, -54 -40, 0 -96 C 54 -40, 54 40, 0 96 Z" fill="url(#accent)" opacity="0.85"/>
    <path d="M0 96 C 0 30, 0 -40, 0 -96" stroke="#08140d" stroke-width="3" fill="none"/>
    <path d="M0 36 L -32 8 M0 4 L 30 -22 M0 -34 L -26 -56" stroke="#08140d" stroke-width="2.4" fill="none"/>
  </g>

  <text x="440" y="566" text-anchor="middle" font-family="Georgia, 'Times New Roman', serif" font-size="66" fill="#eefbf3" font-weight="700">Agriculture &amp;</text>
  <text x="440" y="638" text-anchor="middle" font-family="Georgia, 'Times New Roman', serif" font-size="66" fill="#eefbf3" font-weight="700">Environment</text>
  <text x="440" y="706" text-anchor="middle" font-family="Georgia, 'Times New Roman', serif" font-size="40" fill="#4ade80" font-weight="600">Journal Skills</text>

  <line x1="240" y1="768" x2="640" y2="768" stroke="#1d4435" stroke-width="2"/>

  <text x="440" y="856" text-anchor="middle" font-family="-apple-system, 'Segoe UI', sans-serif" font-size="46" fill="#cbe8d6" font-weight="600">30 flagship journals</text>

  <g font-family="-apple-system, 'Segoe UI', sans-serif" font-size="26" fill="#08140d">
    <rect x="240" y="912" width="178" height="54" rx="27" fill="url(#accent)"/>
    <text x="329" y="948" text-anchor="middle" font-weight="700">fit · framing</text>
    <rect x="462" y="912" width="178" height="54" rx="27" fill="#38bdf8"/>
    <text x="551" y="948" text-anchor="middle" font-weight="700">house style</text>
  </g>
</svg>
