<svg xmlns="http://www.w3.org/2000/svg" width="880" height="1100" viewBox="0 0 880 1100" role="img" aria-label="English Humanities Journal Skills — 36 flagship humanities journals">
  <defs>
    <linearGradient id="bg" x1="0" y1="0" x2="1" y2="1">
      <stop offset="0" stop-color="#1a1206"/>
      <stop offset="0.55" stop-color="#2c1d0c"/>
      <stop offset="1" stop-color="#23170e"/>
    </linearGradient>
    <linearGradient id="accent" x1="0" y1="0" x2="1" y2="0">
      <stop offset="0" stop-color="#e7b75f"/>
      <stop offset="0.5" stop-color="#d99a55"/>
      <stop offset="1" stop-color="#c2703c"/>
    </linearGradient>
  </defs>

  <rect width="880" height="1100" fill="url(#bg)"/>
  <rect x="36" y="36" width="808" height="1028" rx="28" fill="none" stroke="#4a3318" stroke-width="2"/>

  <!-- open book + column motif -->
  <g transform="translate(440,250)" stroke="url(#accent)" fill="none" opacity="0.9">
    <path d="M-130 40 C -90 10, -20 10, 0 30 C 20 10, 90 10, 130 40" stroke-width="3"/>
    <path d="M-130 40 L -130 -36 C -90 -66, -20 -66, 0 -46 C 20 -66, 90 -66, 130 -36 L 130 40" stroke-width="3"/>
    <line x1="0" y1="-46" x2="0" y2="30" stroke-width="2.4"/>
    <line x1="-96" y1="-30" x2="-30" y2="-40" stroke-width="1.4"/>
    <line x1="-96" y1="-10" x2="-30" y2="-20" stroke-width="1.4"/>
    <line x1="96" y1="-30" x2="30" y2="-40" stroke-width="1.4"/>
    <line x1="96" y1="-10" x2="30" y2="-20" stroke-width="1.4"/>
  </g>
  <g transform="translate(440,250)" stroke="#c2703c" stroke-width="2" fill="none" opacity="0.5">
    <line x1="-150" y1="78" x2="150" y2="78"/>
    <line x1="-150" y1="84" x2="150" y2="84"/>
  </g>

  <text x="440" y="600" text-anchor="middle" font-family="Georgia, 'Times New Roman', serif" font-size="78" fill="#f6ecd9" font-weight="700">Humanities</text>
  <text x="440" y="670" text-anchor="middle" font-family="Georgia, 'Times New Roman', serif" font-size="40" fill="#e7b75f" font-weight="600">Journal Skills</text>

  <line x1="240" y1="734" x2="640" y2="734" stroke="#4a3318" stroke-width="2"/>

  <text x="440" y="822" text-anchor="middle" font-family="-apple-system, 'Segoe UI', sans-serif" font-size="46" fill="#e8d8bd" font-weight="600">36 flagship journals</text>

  <g font-family="-apple-system, 'Segoe UI', sans-serif" font-size="26" fill="#1a1206">
    <rect x="240" y="884" width="178" height="54" rx="27" fill="url(#accent)"/>
    <text x="329" y="920" text-anchor="middle" font-weight="700">fit · framing</text>
    <rect x="462" y="884" width="178" height="54" rx="27" fill="#d99a55"/>
    <text x="551" y="920" text-anchor="middle" font-weight="700">house style</text>
  </g>
</svg>
