<svg xmlns="http://www.w3.org/2000/svg" viewBox="0 0 1200 630" role="img" aria-labelledby="title desc">
  <title id="title">FOCS Skills</title>
  <desc id="desc">Cover image for the FOCS foundations-of-computer-science submission skills pack.</desc>
  <rect width="1200" height="630" fill="#101f3c"/>
  <rect x="72" y="72" width="1056" height="486" rx="28" fill="#f2f5fb"/>
  <path d="M600 470 L600 372 M600 372 L420 372 L420 290 M600 372 L780 372 L780 290 M420 290 L340 290 L340 214 M420 290 L500 290 L500 214 M780 290 L700 290 L700 214 M780 290 L860 290 L860 214" fill="none" stroke="#2563a8" stroke-width="14" stroke-linecap="round" stroke-linejoin="round"/>
  <circle cx="600" cy="470" r="34" fill="#2563a8"/>
  <rect x="310" y="184" width="60" height="60" rx="30" fill="#d9930d"/>
  <rect x="470" y="184" width="60" height="60" rx="10" fill="#2563a8"/>
  <rect x="670" y="184" width="60" height="60" rx="30" fill="#8a2f4f"/>
  <rect x="830" y="184" width="60" height="60" rx="10" fill="#d9930d"/>
  <text x="132" y="186" font-family="Arial, Helvetica, sans-serif" font-size="84" font-weight="700" fill="#101f3c">FOCS</text>
  <text x="136" y="258" font-family="Arial, Helvetica, sans-serif" font-size="33" fill="#44506b">IEEE Symposium on Foundations of Computer Science</text>
  <text x="136" y="514" font-family="Arial, Helvetica, sans-serif" font-size="29" fill="#101f3c">Ten-Page Window · Full Versions · IEEE TCMF · Machtey Award</text>
</svg>
