<svg xmlns="http://www.w3.org/2000/svg" viewBox="0 0 1200 630" role="img" aria-labelledby="title desc">
  <title id="title">ISSTA Skills</title>
  <desc id="desc">Cover image for the ISSTA software testing and analysis submission skills pack.</desc>
  <rect width="1200" height="630" fill="#101a2b"/>
  <rect x="72" y="72" width="1056" height="486" rx="28" fill="#f4f2ec"/>
  <g stroke="#2f7f6f" stroke-width="6" fill="none">
    <rect x="150" y="300" width="70" height="70" rx="8"/>
    <rect x="240" y="300" width="70" height="70" rx="8"/>
    <rect x="330" y="300" width="70" height="70" rx="8"/>
    <rect x="150" y="390" width="70" height="70" rx="8"/>
    <rect x="240" y="390" width="70" height="70" rx="8"/>
    <rect x="330" y="390" width="70" height="70" rx="8"/>
  </g>
  <rect x="240" y="300" width="70" height="70" rx="8" fill="#2f7f6f" opacity="0.85"/>
  <rect x="330" y="390" width="70" height="70" rx="8" fill="#2f7f6f" opacity="0.55"/>
  <circle cx="275" cy="335" r="15" fill="#f4f2ec"/>
  <path d="M470 430 L590 340 L690 388 L820 300 L1010 250" fill="none" stroke="#cc785c" stroke-width="16" stroke-linecap="round" stroke-linejoin="round"/>
  <circle cx="590" cy="340" r="20" fill="#cc785c"/>
  <circle cx="820" cy="300" r="20" fill="#6b4f9c"/>
  <text x="132" y="188" font-family="Arial, Helvetica, sans-serif" font-size="84" font-weight="700" fill="#101a2b">ISSTA</text>
  <text x="136" y="262" font-family="Arial, Helvetica, sans-serif" font-size="32" fill="#374151">Software testing and program analysis</text>
  <text x="470" y="516" font-family="Arial, Helvetica, sans-serif" font-size="30" fill="#101a2b">HotCRP · Major Revision · ACM Badges · ACM DL</text>
</svg>
