<svg xmlns="http://www.w3.org/2000/svg" width="880" height="1100" viewBox="0 0 880 1100" role="img" aria-label="Clinical Medicine Journal Skills — 30 flagship specialty clinical journals">
  <defs>
    <linearGradient id="bg" x1="0" y1="0" x2="1" y2="1">
      <stop offset="0" stop-color="#120a10"/>
      <stop offset="0.55" stop-color="#2a0f1c"/>
      <stop offset="1" stop-color="#0f2030"/>
    </linearGradient>
    <linearGradient id="accent" x1="0" y1="0" x2="1" y2="0">
      <stop offset="0" stop-color="#fb7185"/>
      <stop offset="0.5" stop-color="#f43f5e"/>
      <stop offset="1" stop-color="#38bdf8"/>
    </linearGradient>
  </defs>

  <rect width="880" height="1100" fill="url(#bg)"/>
  <rect x="36" y="36" width="808" height="1028" rx="28" fill="none" stroke="#3a2330" stroke-width="2"/>

  <!-- pulse / ECG motif inside a cross -->
  <g transform="translate(440,250)">
    <circle r="104" fill="none" stroke="url(#accent)" stroke-width="2.5" opacity="0.8"/>
    <rect x="-22" y="-78" width="44" height="156" rx="10" fill="url(#accent)" opacity="0.16"/>
    <rect x="-78" y="-22" width="156" height="44" rx="10" fill="url(#accent)" opacity="0.16"/>
    <path d="M-96 0 H-46 L-30 -44 L -6 52 L 14 -22 L 30 0 H96"
          fill="none" stroke="url(#accent)" stroke-width="4" stroke-linejoin="round" stroke-linecap="round"/>
  </g>

  <text x="440" y="566" text-anchor="middle" font-family="Georgia, 'Times New Roman', serif" font-size="70" fill="#fdeef2" font-weight="700">Clinical</text>
  <text x="440" y="638" text-anchor="middle" font-family="Georgia, 'Times New Roman', serif" font-size="70" fill="#fdeef2" font-weight="700">Medicine</text>
  <text x="440" y="706" text-anchor="middle" font-family="Georgia, 'Times New Roman', serif" font-size="40" fill="#fb7185" font-weight="600">Journal Skills</text>

  <line x1="240" y1="768" x2="640" y2="768" stroke="#3a2330" stroke-width="2"/>

  <text x="440" y="856" text-anchor="middle" font-family="-apple-system, 'Segoe UI', sans-serif" font-size="46" fill="#f1d6dd" font-weight="600">30 flagship journals</text>

  <g font-family="-apple-system, 'Segoe UI', sans-serif" font-size="26" fill="#120a10">
    <rect x="240" y="912" width="178" height="54" rx="27" fill="url(#accent)"/>
    <text x="329" y="948" text-anchor="middle" font-weight="700">fit · framing</text>
    <rect x="462" y="912" width="178" height="54" rx="27" fill="#38bdf8"/>
    <text x="551" y="948" text-anchor="middle" font-weight="700">house style</text>
  </g>
</svg>
