<svg xmlns="http://www.w3.org/2000/svg" viewBox="0 0 1200 630" role="img" aria-labelledby="title desc">
  <title id="title">PPoPP Skills</title>
  <desc id="desc">Cover image for the ACM SIGPLAN PPoPP Principles and Practice of Parallel Programming submission skills pack.</desc>
  <rect width="1200" height="630" fill="#0d1b2a"/>
  <rect x="72" y="72" width="1056" height="486" rx="28" fill="#f4f6f8"/>
  <!-- fork-join parallel threads -->
  <path d="M170 300 L360 300" fill="none" stroke="#1b6ca8" stroke-width="14" stroke-linecap="round"/>
  <path d="M360 300 L520 220" fill="none" stroke="#1b6ca8" stroke-width="14" stroke-linecap="round"/>
  <path d="M360 300 L520 300" fill="none" stroke="#1b6ca8" stroke-width="14" stroke-linecap="round"/>
  <path d="M360 300 L520 380" fill="none" stroke="#1b6ca8" stroke-width="14" stroke-linecap="round"/>
  <path d="M520 220 L680 300" fill="none" stroke="#2a9d8f" stroke-width="14" stroke-linecap="round"/>
  <path d="M520 300 L680 300" fill="none" stroke="#2a9d8f" stroke-width="14" stroke-linecap="round"/>
  <path d="M520 380 L680 300" fill="none" stroke="#2a9d8f" stroke-width="14" stroke-linecap="round"/>
  <path d="M680 300 L1030 300" fill="none" stroke="#2a9d8f" stroke-width="14" stroke-linecap="round"/>
  <circle cx="360" cy="300" r="20" fill="#e07a5f"/>
  <circle cx="680" cy="300" r="20" fill="#e07a5f"/>
  <circle cx="520" cy="220" r="14" fill="#1b6ca8"/>
  <circle cx="520" cy="300" r="14" fill="#1b6ca8"/>
  <circle cx="520" cy="380" r="14" fill="#1b6ca8"/>
  <circle cx="170" cy="300" r="22" fill="#1b6ca8"/>
  <circle cx="1030" cy="300" r="22" fill="#2a9d8f"/>
  <text x="132" y="180" font-family="Arial, Helvetica, sans-serif" font-size="104" font-weight="700" fill="#0d1b2a">PPoPP</text>
  <text x="136" y="226" font-family="Arial, Helvetica, sans-serif" font-size="30" fill="#374151">Principles and Practice of Parallel Programming · ACM SIGPLAN</text>
  <text x="136" y="516" font-family="Arial, Helvetica, sans-serif" font-size="29" fill="#0d1b2a">Two-column acmart · Double-blind + rebuttal · Artifacts · Scalability</text>
</svg>
