<svg xmlns="http://www.w3.org/2000/svg" width="880" height="1100" viewBox="0 0 880 1100" role="img" aria-label="Engineering &amp; Technology Journal Skills — 40 flagship engineering journals">
  <defs>
    <linearGradient id="bg" x1="0" y1="0" x2="1" y2="1">
      <stop offset="0" stop-color="#0a0f1a"/>
      <stop offset="0.55" stop-color="#13233b"/>
      <stop offset="1" stop-color="#0e2b2b"/>
    </linearGradient>
    <linearGradient id="accent" x1="0" y1="0" x2="1" y2="0">
      <stop offset="0" stop-color="#f59e0b"/>
      <stop offset="0.5" stop-color="#fb923c"/>
      <stop offset="1" stop-color="#34d399"/>
    </linearGradient>
  </defs>

  <rect width="880" height="1100" fill="url(#bg)"/>
  <rect x="36" y="36" width="808" height="1028" rx="28" fill="none" stroke="#243b55" stroke-width="2"/>

  <!-- gear + circuit motif -->
  <g transform="translate(440,250)" stroke="url(#accent)" fill="none" opacity="0.9">
    <circle r="96" stroke-width="3"/>
    <circle r="40" stroke-width="3"/>
    <g stroke-width="14" stroke-linecap="butt">
      <line x1="0" y1="-96" x2="0" y2="-128"/>
      <line x1="0" y1="96" x2="0" y2="128"/>
      <line x1="-96" y1="0" x2="-128" y2="0"/>
      <line x1="96" y1="0" x2="128" y2="0"/>
      <line x1="-68" y1="-68" x2="-90" y2="-90"/>
      <line x1="68" y1="68" x2="90" y2="90"/>
      <line x1="-68" y1="68" x2="-90" y2="90"/>
      <line x1="68" y1="-68" x2="90" y2="-90"/>
    </g>
  </g>
  <g transform="translate(440,250)" stroke="#38bdf8" stroke-width="2" fill="none" opacity="0.6">
    <path d="M-170 150 H-120 V110 H-70"/>
    <circle cx="-170" cy="150" r="5" fill="#38bdf8" stroke="none"/>
    <path d="M170 150 H120 V110 H70"/>
    <circle cx="170" cy="150" r="5" fill="#34d399" stroke="none"/>
  </g>

  <text x="440" y="566" text-anchor="middle" font-family="Georgia, 'Times New Roman', serif" font-size="68" fill="#f4f6fb" font-weight="700">Engineering &amp;</text>
  <text x="440" y="638" text-anchor="middle" font-family="Georgia, 'Times New Roman', serif" font-size="68" fill="#f4f6fb" font-weight="700">Technology</text>
  <text x="440" y="706" text-anchor="middle" font-family="Georgia, 'Times New Roman', serif" font-size="40" fill="#fb923c" font-weight="600">Journal Skills</text>

  <line x1="240" y1="768" x2="640" y2="768" stroke="#243b55" stroke-width="2"/>

  <text x="440" y="856" text-anchor="middle" font-family="-apple-system, 'Segoe UI', sans-serif" font-size="46" fill="#cbd5e1" font-weight="600">40 flagship journals</text>

  <g font-family="-apple-system, 'Segoe UI', sans-serif" font-size="26" fill="#0a0f1a">
    <rect x="240" y="912" width="178" height="54" rx="27" fill="url(#accent)"/>
    <text x="329" y="948" text-anchor="middle" font-weight="700">fit · framing</text>
    <rect x="462" y="912" width="178" height="54" rx="27" fill="#38bdf8"/>
    <text x="551" y="948" text-anchor="middle" font-weight="700">house style</text>
  </g>
</svg>
