<svg xmlns="http://www.w3.org/2000/svg" viewBox="0 0 1200 630" role="img" aria-labelledby="title desc">
  <title id="title">ECAI Skills</title>
  <desc id="desc">Cover image for the EurAI European Conference on Artificial Intelligence submission skills pack.</desc>
  <rect width="1200" height="630" fill="#0d1b2a"/>
  <rect x="72" y="72" width="1056" height="486" rx="28" fill="#f3f1ea"/>
  <circle cx="600" cy="315" r="150" fill="none" stroke="#1b4965" stroke-width="10"/>
  <g fill="#f4a300">
    <circle cx="600" cy="165" r="13"/>
    <circle cx="675" cy="185" r="13"/>
    <circle cx="730" cy="240" r="13"/>
    <circle cx="750" cy="315" r="13"/>
    <circle cx="730" cy="390" r="13"/>
    <circle cx="675" cy="445" r="13"/>
    <circle cx="600" cy="465" r="13"/>
    <circle cx="525" cy="445" r="13"/>
    <circle cx="470" cy="390" r="13"/>
    <circle cx="450" cy="315" r="13"/>
    <circle cx="470" cy="240" r="13"/>
    <circle cx="525" cy="185" r="13"/>
  </g>
  <path d="M470 315 L600 240 L730 315 L600 390 Z" fill="none" stroke="#c1666b" stroke-width="8" stroke-linejoin="round"/>
  <text x="132" y="180" font-family="Arial, Helvetica, sans-serif" font-size="96" font-weight="700" fill="#0d1b2a">ECAI</text>
  <text x="136" y="228" font-family="Arial, Helvetica, sans-serif" font-size="30" fill="#374151">European Conference on Artificial Intelligence · EurAI</text>
  <text x="136" y="516" font-family="Arial, Helvetica, sans-serif" font-size="28" fill="#0d1b2a">FAIA / IOS Press · PAIS · Abstract-then-Paper · IJCAI-ECAI 2026</text>
</svg>
