<svg xmlns="http://www.w3.org/2000/svg" viewBox="0 0 1200 630" role="img" aria-labelledby="title desc">
  <title id="title">INTERSPEECH Skills</title>
  <desc id="desc">Cover image for the Interspeech speech-communication conference skills pack, with a stylized waveform.</desc>
  <rect width="1200" height="630" fill="#101c2c"/>
  <rect x="64" y="64" width="1072" height="502" rx="24" fill="#f2f5ef"/>
  <g stroke="#1f6f78" stroke-width="14" stroke-linecap="round">
    <line x1="170" y1="360" x2="170" y2="420"/>
    <line x1="230" y1="330" x2="230" y2="450"/>
    <line x1="290" y1="300" x2="290" y2="480"/>
    <line x1="350" y1="345" x2="350" y2="435"/>
    <line x1="410" y1="310" x2="410" y2="470"/>
    <line x1="470" y1="365" x2="470" y2="415"/>
    <line x1="530" y1="285" x2="530" y2="495"/>
    <line x1="590" y1="335" x2="590" y2="445"/>
  </g>
  <g stroke="#b3552f" stroke-width="14" stroke-linecap="round">
    <line x1="650" y1="315" x2="650" y2="465"/>
    <line x1="710" y1="355" x2="710" y2="425"/>
    <line x1="770" y1="295" x2="770" y2="485"/>
    <line x1="830" y1="340" x2="830" y2="440"/>
    <line x1="890" y1="320" x2="890" y2="460"/>
    <line x1="950" y1="360" x2="950" y2="420"/>
    <line x1="1010" y1="330" x2="1010" y2="450"/>
  </g>
  <text x="128" y="178" font-family="Arial, Helvetica, sans-serif" font-size="76" font-weight="700" fill="#101c2c">INTERSPEECH</text>
  <text x="130" y="242" font-family="Arial, Helvetica, sans-serif" font-size="32" fill="#3d4a5c">Spoken language science and technology — the ISCA flagship</text>
  <text x="130" y="540" font-family="Arial, Helvetica, sans-serif" font-size="28" fill="#101c2c">4 pages + references · Paper update window · ISCA Archive · WER / MOS rigor</text>
</svg>
