<svg xmlns="http://www.w3.org/2000/svg" viewBox="0 0 240 320" width="240" height="320">
<rect width="240" height="320" fill="#ffffff"/>
<rect x="5" y="5" width="230" height="310" rx="13" fill="#ffffff" stroke="#3f7d20" stroke-width="2"/>
<path d="M5,18 a13,13 0 0 1 13,-13 h204 a13,13 0 0 1 13,13 v60 h-230 z" fill="#3f7d20"/>
<text x="120" y="35" text-anchor="middle" font-family="Helvetica Neue, Helvetica, Arial, sans-serif" font-size="10.5" letter-spacing="2.5" font-weight="700" fill="#ffffff">CONSERVATION SCIENCE</text>
<rect x="90.0" y="45" width="60" height="2" rx="1" fill="#ffffff" opacity="0.7"/>
<text x="120" y="63" text-anchor="middle" font-family="Helvetica Neue, Helvetica, Arial, sans-serif" font-size="8.5" letter-spacing="1.5" fill="#ffffff" opacity="0.8">JOURNAL · AGENT SKILLS</text>
<path d="M120,150 C120,124 100,108 84,104 C92,128 104,140 120,150 Z" fill="#3f7d20" opacity="0.85"/>
<path d="M120,150 C120,124 140,108 156,104 C148,128 136,140 120,150 Z" fill="#3f7d20" opacity="0.55"/>
<line x1="120" y1="150" x2="120" y2="112" stroke="#3f7d20" stroke-width="1.4"/>
<text x="120" y="194" text-anchor="middle" font-family="Helvetica Neue, Helvetica, Arial, sans-serif" font-size="20" font-weight="700" fill="#1a1a1a">Conservation</text><text x="120" y="220" text-anchor="middle" font-family="Helvetica Neue, Helvetica, Arial, sans-serif" font-size="20" font-weight="700" fill="#1a1a1a">Biology</text>
<text x="120" y="252" text-anchor="middle" font-family="Helvetica Neue, Helvetica, Arial, sans-serif" font-size="11" fill="#6a6a6a">SCB · Wiley</text>
<line x1="42" y1="276" x2="198" y2="276" stroke="#3f7d20" stroke-width="1" opacity="0.3"/>
<rect x="52" y="285" width="136" height="22" rx="11" fill="#3f7d20"/>
<text x="120" y="300" text-anchor="middle" font-family="Helvetica Neue, Helvetica, Arial, sans-serif" font-size="10" font-weight="700" fill="#ffffff">Biodiversity · Science to Practice</text>
</svg>
